<?xml version="1.0" encoding="utf-8"?>
<!-- Generator: Adobe Illustrator 16.0.0, SVG Export Plug-In . SVG Version: 6.00 Build 0)  -->
<!DOCTYPE svg PUBLIC "-//W3C//DTD SVG 1.1//EN" "http://www.w3.org/Graphics/SVG/1.1/DTD/svg11.dtd">
<svg version="1.1" id="Layer_1" xmlns="http://www.w3.org/2000/svg" xmlns:xlink="http://www.w3.org/1999/xlink" x="0px" y="0px"
	 width="514px" height="486px" viewBox="0 0 514 486" enable-background="new 0 0 514 486" xml:space="preserve">
<rect x="17" y="8" fill="none" stroke="#FFFFFF" stroke-width="2" stroke-miterlimit="10" width="480" height="470"/>
<path fill="none" stroke="#FFFFFF" stroke-width="2" stroke-miterlimit="10" d="M192.23,247.2h42.48l-21.24-82.37L192.23,247.2z
	 M53.67,45v396H461V45H53.67z M258.025,337.462l-15.542-53.532H184.98l-15.542,53.532h-39.372l55.432-189.263v-20.722h52.842
	l63.202,209.985H258.025z M362.7,337.5h-42.5V177.7h42.5V337.5z M341.7,158.6c-12.2,0-22-9.7-22-21.8c0-12,9.899-21.8,22-21.8
	c12.1,0,22,9.8,22,21.8S353.8,158.6,341.7,158.6z"/>
</svg>
