<?xml version="1.0" encoding="utf-8"?>
<!-- Generator: Adobe Illustrator 16.0.0, SVG Export Plug-In . SVG Version: 6.00 Build 0)  -->
<!DOCTYPE svg PUBLIC "-//W3C//DTD SVG 1.1//EN" "http://www.w3.org/Graphics/SVG/1.1/DTD/svg11.dtd">
<svg version="1.1" id="iMac-2012-big_xA0_Image_1_" xmlns="http://www.w3.org/2000/svg" xmlns:xlink="http://www.w3.org/1999/xlink"
	 x="0px" y="0px" width="1958px" height="1561px" viewBox="0 0 1958 1561" enable-background="new 0 0 1958 1561"
	 xml:space="preserve">
<g>
	<path fill-rule="evenodd" clip-rule="evenodd" fill="#FFFFFF" d="M1172.327,1338.173c1.037,15.132,2.001,29.564,3.022,43.992
		c1.883,26.59,3.79,53.179,5.707,79.767c1.106,15.356,3.942,30.326,9.494,44.768c4.632,12.052,13.481,19.152,25.568,22.483
		c17.162,4.729,34.391,9.216,51.589,13.812c1.431,0.382,2.849,0.812,4.347,2.197c-3.642,0.575-7.266,1.441-10.928,1.665
		c-8.48,0.518-16.979,1.012-25.472,1.014c-170.499,0.044-340.998,0.045-511.497-0.073c-9.473-0.007-18.946-1.08-28.413-1.746
		c-1.605-0.113-3.18-0.68-4.799-1.861c12.617-3.377,25.234-6.758,37.853-10.131c6.269-1.676,12.596-3.159,18.799-5.048
		c11.404-3.472,19.991-10.152,24.557-21.61c5.416-13.595,8.446-27.73,9.537-42.219c3.127-41.534,5.948-83.092,8.876-124.641
		c0.033-0.48-0.114-0.974-0.286-2.295c-2.181,0-4.423,0-6.664,0c-237.5,0-474.999-0.04-712.498,0.087
		c-15.978,0.009-29.445-4.794-39.875-17.02c-7.65-8.966-11.176-19.534-11.174-31.311c0.007-45.499-0.004-90.998-0.004-136.498
		c0-361.498-0.001-722.997,0.002-1084.495c0-24.598,15.178-43.799,38.502-48.499c3.558-0.717,7.287-0.812,10.937-0.812
		c606.997-0.033,1213.994-0.034,1820.992-0.023c29.419,0.001,49.526,20.208,49.527,49.689
		c0.006,362.665,0.006,725.33,0.001,1087.995c-0.001,44.333,0.005,88.666-0.077,132.999c-0.043,23.738-16.112,43-39.43,47.162
		c-4.222,0.754-8.633,0.615-12.956,0.616c-235.833,0.03-471.665,0.031-707.497,0.035
		C1177.623,1338.173,1175.179,1338.173,1172.327,1338.173z M23.067,1160.711c638.276,0,1275.966,0,1913.964,0
		c0-2.156,0-3.97,0-5.782c0-361.652,0.001-723.304-0.002-1084.956c0-28.63-18.597-47.302-47.146-47.302
		c-606.475-0.005-1212.95-0.005-1819.425-0.001c-28.812,0-47.391,18.687-47.391,47.623c0,361.151,0,722.304,0,1083.455
		C23.067,1155.902,23.067,1158.056,23.067,1160.711z M1937.097,1164.51c-638.402,0-1276.096,0-1914.034,0c0,2.12,0,3.779,0,5.438
		c0,39.666-0.011,79.331,0.003,118.997c0.01,27.136,18.98,46.312,46.206,46.31c241.657-0.021,483.314-0.15,724.971-0.16
		c127.159-0.004,254.318,0.224,381.478,0.248c238.326,0.046,476.653,0.037,714.979,0.001c27.555-0.005,46.38-19.051,46.392-46.601
		c0.019-39.498,0.005-78.997,0.005-118.496C1937.097,1168.432,1937.097,1166.616,1937.097,1164.51z M1169.257,1338.887
		c-125.574,0-250.314,0-375.294,0c-0.265,1.914-0.586,3.532-0.701,5.165c-2.804,39.713-5.537,79.432-8.395,119.142
		c-1.117,15.516-4.13,30.635-9.846,45.19c-4.75,12.094-13.784,19.289-25.709,23.341c-2.828,0.961-5.787,1.533-8.68,2.305
		c-11.468,3.062-22.933,6.134-35.608,9.524c14.198,2.258,544.984,1.875,551.853-0.303c-14.124-3.78-27.952-7.351-41.703-11.198
		c-12.732-3.563-22.852-10.797-26.967-23.721c-3.817-11.986-7.715-24.273-8.96-36.689c-3.204-31.977-4.956-64.099-7.295-96.161
		C1171.07,1363.381,1170.171,1351.282,1169.257,1338.887z"/>
	<path fill-rule="evenodd" clip-rule="evenodd" fill="#FFFFFF" d="M1863.605,1090.778c-588.266,0-1176.17,0-1764.34,0
		c0-330.808,0-661.394,0-992.379c587.933,0,1175.954,0,1764.34,0C1863.605,428.97,1863.605,759.671,1863.605,1090.778z
		 M1860.719,101.336c-586.372,0-1172.394,0-1758.34,0c0,329.04,0,657.743,0,986.414c586.283,0,1172.186,0,1758.34,0
		C1860.719,758.918,1860.719,430.337,1860.719,101.336z"/>
</g>
</svg>
