<?xml version="1.0" encoding="utf-8"?>
<!-- Generator: Adobe Illustrator 16.0.0, SVG Export Plug-In . SVG Version: 6.00 Build 0)  -->
<!DOCTYPE svg PUBLIC "-//W3C//DTD SVG 1.1//EN" "http://www.w3.org/Graphics/SVG/1.1/DTD/svg11.dtd">
<svg version="1.1" id="Layer_1" xmlns="http://www.w3.org/2000/svg" xmlns:xlink="http://www.w3.org/1999/xlink" x="0px" y="0px"
	 width="501px" height="734px" viewBox="17 -453 501 734" enable-background="new 17 -453 501 734" xml:space="preserve">
<path fill="none" stroke="#FFFFFF" stroke-width="4" stroke-miterlimit="10" d="M510.553,240.21
	c0,19.227-15.587,34.812-34.812,34.812H60.259c-19.223,0-34.812-15.585-34.812-34.812v-649.058
	c0-19.223,15.589-34.812,34.812-34.812h415.479c19.225,0,34.812,15.589,34.812,34.812V240.21H510.553z M52.405-371.794v574.952
	h431.189v-574.952H52.405z M268,222.216c-9.981,0-18.074,8.094-18.074,18.074c0,9.995,8.093,18.083,18.074,18.083
	c9.976,0,18.074-8.088,18.074-18.083C286.08,230.31,277.981,222.216,268,222.216z M267.95-400.067c2.537,0,4.595-2.061,4.595-4.599
	c0-2.536-2.061-4.601-4.595-4.601c-2.548,0-4.601,2.065-4.601,4.601C263.35-402.127,265.413-400.067,267.95-400.067z"/>
</svg>
