<svg xmlns="http://www.w3.org/2000/svg" xmlns:xlink="http://www.w3.org/1999/xlink" version="1.1" x="0px" y="0px" viewBox="0 0 90 112.5" enable-background="new 0 0 90 90" xml:space="preserve"><path d="M61.99,89.984H28.224c-2.9,0-5.26-2.359-5.26-5.26V5.065c0-2.9,2.359-5.26,5.26-5.26H61.99c2.9,0,5.26,2.36,5.26,5.26  v79.659C67.25,87.625,64.891,89.984,61.99,89.984z M28.224,0.234c-2.664,0-4.831,2.167-4.831,4.831v79.659  c0,2.664,2.167,4.832,4.831,4.832H61.99c2.662,0,4.83-2.168,4.83-4.832V5.065c0-2.664-2.168-4.831-4.83-4.831H28.224z"/><path d="M45.105,87.52c-1.744,0-3.162-1.42-3.162-3.164s1.417-3.162,3.162-3.162s3.164,1.418,3.164,3.162S46.85,87.52,45.105,87.52z   M45.105,81.406c-1.625,0-2.947,1.322-2.947,2.949s1.322,2.949,2.947,2.949c1.627,0,2.949-1.322,2.949-2.949  S46.732,81.406,45.105,81.406z"/><path d="M45.105,87.125c-1.527,0-2.769-1.242-2.769-2.77s1.242-2.77,2.769-2.77s2.771,1.242,2.771,2.77S46.633,87.125,45.105,87.125  z M45.105,81.799c-1.408,0-2.554,1.148-2.554,2.557c0,1.41,1.146,2.555,2.554,2.555c1.41,0,2.557-1.145,2.557-2.555  C47.662,82.947,46.516,81.799,45.105,81.799z"/><circle fill-rule="evenodd" clip-rule="evenodd" cx="39.093" cy="5.389" r="0.662"/><circle fill-rule="evenodd" clip-rule="evenodd" cx="45.053" cy="2.813" r="0.537"/><path fill-rule="evenodd" clip-rule="evenodd" d="M48.02,5.363c0,0.188-0.152,0.339-0.34,0.339h-5.218  c-0.187,0-0.339-0.151-0.339-0.339l0,0c0-0.187,0.152-0.339,0.339-0.339h5.218C47.867,5.024,48.02,5.176,48.02,5.363L48.02,5.363z"/><path d="M64.641,79.656H25.395V10.028h39.246V79.656z M25.823,79.227h38.388v-68.77H25.823V79.227z"/><g><path fill-rule="evenodd" clip-rule="evenodd" d="M22.75,13.038c0,0.468,0.097,0.851,0.214,0.851s0.214-0.383,0.214-0.851v-1.659   c0-0.468-0.097-0.851-0.214-0.851s-0.214,0.383-0.214,0.851V13.038z"/></g><g><path fill-rule="evenodd" clip-rule="evenodd" d="M22.75,21.974c0,0.468,0.097,0.851,0.214,0.851s0.214-0.383,0.214-0.851v-3.875   c0-0.468-0.097-0.851-0.214-0.851s-0.214,0.383-0.214,0.851V21.974z"/></g><g><path fill-rule="evenodd" clip-rule="evenodd" d="M22.75,29.05c0,0.468,0.097,0.851,0.214,0.851s0.214-0.383,0.214-0.851v-3.919   c0-0.468-0.097-0.851-0.214-0.851s-0.214,0.383-0.214,0.851V29.05z"/></g><text x="0" y="105" fill="#000000" font-size="5px" font-weight="bold" font-family="'Helvetica Neue', Helvetica, Arial-Unicode, Arial, Sans-serif">Created by Michael Sjørup Christiansen</text><text x="0" y="110" fill="#000000" font-size="5px" font-weight="bold" font-family="'Helvetica Neue', Helvetica, Arial-Unicode, Arial, Sans-serif">from the Noun Project</text></svg>