<?xml version="1.0" encoding="utf-8"?>
<!-- Generator: Adobe Illustrator 16.0.0, SVG Export Plug-In . SVG Version: 6.00 Build 0)  -->
<!DOCTYPE svg PUBLIC "-//W3C//DTD SVG 1.1//EN" "http://www.w3.org/Graphics/SVG/1.1/DTD/svg11.dtd">
<svg version="1.1" id="Livello_1" xmlns="http://www.w3.org/2000/svg" xmlns:xlink="http://www.w3.org/1999/xlink" x="0px" y="0px"
	 width="300px" height="295px" viewBox="0 0 300 295" enable-background="new 0 0 300 295" xml:space="preserve">
<g>
	<g id="Layer_2_1_">
		<g>
			<rect fill="none" stroke="#FFFFFF" stroke-width="2" stroke-miterlimit="10" width="300" height="295"/>
		</g>
	</g>
	<g id="Layer_2">
		<g>
			
				<rect x="23.859" y="23.459" fill="none" stroke="#FFFFFF" stroke-width="2" stroke-miterlimit="10" width="252.284" height="248.082"/>
		</g>
	</g>
	<g id="Layer_4">
		<g>
			<path fill="none" stroke="#FFFFFF" stroke-width="2" stroke-miterlimit="10" d="M72.498,83.144c0,0,18.968-0.499,34.582-0.499
				c15.778,0,27.028,3.712,34.581,10.235c7.219,6.164,12.087,16.672,12.087,28.634c0,11.962-3.694,21.75-10.41,28.632
				c-8.729,8.881-18.901,14.138-36.258,14.864c-4.795,0.201-9.233,0.249-9.233,0.249v38.885h-25.35L72.498,83.144L72.498,83.144z
				 M97.846,143.717c2.754,0.268,4.48,0.139,8.562,0.09c13.598-0.163,21.989-8.432,21.989-20.937
				c0-11.234-6.919-20.458-19.973-20.936c-5.203-0.19-10.578,0-10.578,0V143.717z"/>
			<g>
				<path fill="none" stroke="#FFFFFF" stroke-width="2" stroke-miterlimit="10" d="M163.422,177.055
					c5.109,3.135,17.165,7.83,25.383,7.83c8.396,0,11.863-2.959,11.863-7.572c0-4.619-2.738-9.471-13.145-12.979
					c-18.439-6.279-25.561-13.795-25.375-24.315c0-16.991,14.238-29.731,36.328-29.731c10.405,0,18.719,3.402,24.19,6.17v20.392
					c-4.021-2.218-15.61-7.17-23.276-7.17c-6.76,0-10.592,2.769-10.592,7.382c0,4.248,3.473,6.464,14.426,10.344
					c16.976,5.909,24.096,14.584,24.275,27.879c0,16.805-12.954,30.168-38.701,29.357c-8.835-0.279-18.624-3.771-25.379-7.459
					L163.422,177.055L163.422,177.055z"/>
			</g>
		</g>
	</g>
</g>
</svg>
